<svg width="438" height="260" viewBox="0 0 438 260" xmlns="http://www.w3.org/2000/svg"><defs><linearGradient x1="100%" y1="50%" x2="0%" y2="50%" id="a"><stop stop-color="#00FE8F" offset="0%"/><stop stop-color="#3F0143" offset="100%"/></linearGradient></defs><path d="M2-11l2.515.993c83.122 32.61 180.107 49.083 273.817 52.333l-42.069 42.276 2.237.48c58.122 12.4 114.302 18.63 176.21 18.63h1.763c53.317-.038 89.971-1.806 140.92-11.3l-67.461 67.798 3.459-.372C607.619 147.308 730.729 109.445 827 56.976v142.716l-3.538 1.502c-116.879 49.334-246.697 76.652-381.385 76.652h-.886c-9.044.009-14.578.147-20.137.154h-1.077c-5.218-.011-10.657-.152-19.212-.637l57.425-57.703-3.139-.004c-103.67-.288-214.905-14.8-308.466-44.926l40.178-40.372-2.191-.57C121.748 117.36 58.826 92.725 2 64.158V-11zm-53-233c83.677 33.268 181.675 50.043 276.331 53.325l-42.067 42.277 2.236.48c58.123 12.4 114.302 18.63 176.21 18.63h1.763c53.315-.038 89.97-1.805 140.92-11.3L436.93-72.79l3.459-.372C554.618-85.692 677.728-123.555 774-176.024v142.716l-3.538 1.502C653.584 17.528 523.763 44.845 389.077 44.845h-.886c-9.045.01-14.578.148-20.137.155h-1.078c-5.217-.011-10.656-.152-19.211-.637l57.424-57.703-3.14-.005C298.38-13.632 187.147-28.143 93.586-58.27l40.178-40.373-2.191-.57C68.749-115.638 5.826-140.274-51-168.84z" transform="translate(-2)" fill="url(#a)" fill-rule="evenodd"/></svg>