<svg width="1392" height="678" viewBox="0 0 1392 678" xmlns="http://www.w3.org/2000/svg"><defs><linearGradient x1="100%" y1="50%" x2="0%" y2="50%" id="a"><stop stop-color="#05F0FF" offset="0%"/><stop stop-color="#37003C" offset="100%"/></linearGradient></defs><path d="M104 215l5.898 2.33c194.96 76.502 422.434 115.15 642.225 122.774l-98.67 99.18 4.145.89c136.716 29.25 268.802 43.943 414.394 43.943l3.807-.001c125.23-.08 211.246-4.216 330.849-26.509l-158.226 159.056 8.112-.873c267.918-29.397 556.668-118.224 782.466-241.318V709.29l-8.298 3.523c-274.134 115.738-578.618 179.826-894.52 179.826h-1.316c-20.016.012-32.75.297-44.976.353l-1.592.005-1.59.004h-1.591c-12.475-.013-25.343-.333-45.831-1.493l134.687-135.374-7.362-.01c-243.152-.674-504.05-34.718-723.493-105.396l94.236-94.715-4.472-1.162C385.31 516.313 237.485 458.443 104 391.324V215zM-21-331c196.26 78.048 426.111 117.402 648.122 125.102l-98.667 99.181 4.144.891c136.716 29.25 268.8 43.943 414.392 43.943l3.806-.001c125.226-.08 211.245-4.214 330.852-26.507L1123.42 70.662l8.112-.872C1399.45 40.393 1688.198-48.434 1914-171.528v334.816l-8.298 3.523c-274.133 115.738-578.621 179.826-894.522 179.826h-1.315c-21.756.014-34.909.349-48.158.363h-1.59c-12.475-.013-25.343-.332-45.832-1.494l134.685-135.374-7.362-.01c-243.152-.674-504.048-34.718-723.49-105.395l94.236-94.715-4.472-1.162C260.312-29.688 112.485-87.557-21-154.674z" transform="translate(-104)" fill="url(#a)" fill-rule="evenodd"/></svg>