<svg xmlns="http://www.w3.org/2000/svg" viewBox="0 0 632 388.5"><linearGradient id="a" gradientUnits="userSpaceOnUse" x1="-345.811" y1="740.979" x2="-345.293" y2="741.001" gradientTransform="matrix(1748 0 0 -612.0001 604528.75 453663.344)"><stop offset=".113" stop-color="#37003c"/><stop offset=".787" stop-color="#ff2882"/></linearGradient><path d="M-33 97.5c69.4 34.9 146.4 64.9 223.1 84.7l-48.5 48.7c114.1 36.7 250 54.2 376.3 54.2l-69.3 69.6c22.4 1.3 27.1.6 49.9.6 164.3 0 322.6-33.6 464.8-94.3V88.8c-117.4 64-267.9 109.9-407 124.6l81.5-81.8c-62.2 11.6-106.8 13.6-172.3 13.6-75.7 0-144.3-7.7-215.5-23.1l50.8-51C186.4 67.2 68 46.9-33 6.8v90.7z" fill-rule="evenodd" clip-rule="evenodd" fill="url(#a)"/><linearGradient id="b" gradientUnits="userSpaceOnUse" x1="-345.797" y1="740.53" x2="-345.278" y2="740.53" gradientTransform="matrix(1748 0 0 -612.0001 604528.75 453663.344)"><stop offset=".113" stop-color="#37003c"/><stop offset=".787" stop-color="#ff2882"/></linearGradient><path d="M27.2 375.4c69.4 34.9 146.4 64.9 223.1 84.7l-48.5 48.7c114.1 36.7 250 54.2 376.3 54.2l-69.3 69.6c22.4 1.3 27.1.6 49.9.6 164.3 0 322.6-33.6 464.8-94.3V366.7c-117.4 64-267.9 109.9-407 124.6l81.5-81.8c-62.2 11.6-106.8 13.6-172.3 13.6-75.7 0-144.3-7.7-215.5-23.1l50.8-51c-114.3-4-232.7-24.2-333.7-64.4v90.8z" fill-rule="evenodd" clip-rule="evenodd" fill="url(#b)"/></svg>