<svg xmlns="http://www.w3.org/2000/svg" viewBox="0 0 1020 354" width="1020" height="354"><linearGradient id="a" gradientUnits="userSpaceOnUse" x1="10.191" y1="676.991" x2="10.904" y2="676.855" gradientTransform="matrix(1206 0 0 -717 -12122 485506)"><stop offset="0" stop-color="#37003c"/><stop offset="1" stop-color="#fc2c80"/></linearGradient><path d="M670.7 257.2l92.7-93.1c-70.8 13.2-121.5 15.5-196.1 15.5-86.2 0-164.3-8.8-245.3-26.2l57.8-58.1C249.7 90.7 115 67.7 0 22v103.2c79 39.7 166.6 73.9 254 96.4l-55.2 55.5c129.9 41.8 284.6 61.7 428.3 61.7L612 354h408.1V169c-110.2 44.6-233.3 76-349.4 88.2zM311 0c80.6 12.7 164 18.9 244 18.9l-78.9 79.3c25.5 1.4 30.9.7 56.8.7 171 0 336.3-32 487.1-90.3V0H311z" fill-rule="evenodd" clip-rule="evenodd" fill="url(#a)"/></svg>