<svg width="537" height="670" viewBox="0 0 537 670" xmlns="http://www.w3.org/2000/svg" xmlns:xlink="http://www.w3.org/1999/xlink"><defs><path id="a" d="M0 0v608.573L61.32 670H537V0z"/></defs><g fill="none" fill-rule="evenodd"><mask id="b" fill="#fff"><use xlink:href="#a"/></mask><path d="M1075.547 884.9c-138.75-60.764-273.378-135.142-401-223.698h55.493C622.534 586.6 519.983 501.98 424.174 406.931a2381.21 2381.21 0 01-26.894-27.15h44.394c-86.83-88.94-165.157-183.086-235.01-281.42h33.298A2328.967 2328.967 0 0168.636-183.056h22.198c-47.213-91.561-88.058-185.58-122.443-281.42l-27.938 27.948a2339.142 2339.142 0 0084.151 253.472H2.407C40.51-86.995 85.234 7.03 136.508 98.362l-33.296-.001c54.542 97.15 116.48 191.248 185.917 281.42h-44.397c63.304 82.208 132.782 161.174 208.463 236.255 15.489 15.366 31.218 30.357 47.057 45.165h-55.493c115.746 108.204 240.61 201.637 371.379 281.42h-66.59c56.485 34.462 114.076 66.36 172.482 95.857L1075.547 884.9zM1257 703.379c-138.749-60.765-273.378-135.143-400.999-223.7h55.492c-107.505-74.6-210.057-159.221-305.865-254.27-9.064-8.99-18.011-18.05-26.896-27.15h44.395c-86.83-88.94-165.158-183.084-235.009-281.42h33.297A2328.925 2328.925 0 01250.09-364.58h22.198C225.073-456.142 184.23-550.16 149.844-646l-27.938 27.947a2339.142 2339.142 0 0084.151 253.473H183.86c38.103 96.062 82.827 190.086 134.103 281.417h-33.298c54.542 97.151 116.48 191.249 185.917 281.42h-44.396c63.303 82.21 132.784 161.174 208.463 236.255 15.488 15.365 31.22 30.357 47.056 45.165l-55.493-.001c115.746 108.206 240.613 201.639 371.38 281.42H931c56.486 34.464 114.076 66.363 172.483 95.858L1257 703.378zM740.576 1220c-58.405-29.495-115.995-61.394-172.482-95.857h66.592c-130.77-79.78-255.635-173.213-371.382-281.42H318.8c-15.84-14.806-31.57-29.798-47.058-45.164-75.68-75.08-145.158-154.046-208.463-236.255h44.394C38.238 471.134-23.699 377.034-78.24 279.885h33.297c-51.275-91.332-96-185.357-134.103-281.419h22.2A2338.68 2338.68 0 01-241-255.006l27.937-27.946C-178.68-187.114-137.833-93.096-90.62-1.534h-22.197A2328.535 2328.535 0 0058.51 279.886H25.212c69.85 98.333 148.178 192.48 235.008 281.42l-44.394-.001a2408.262 2408.262 0 0026.895 27.152c95.809 95.048 198.36 179.667 305.866 254.269h-55.493c127.622 88.554 262.25 162.934 401 223.698L740.576 1220z" fill="#FFF" mask="url(#b)"/></g></svg>