<svg xmlns="http://www.w3.org/2000/svg" width="552" height="200" viewBox="0 0 552 200"><path d="M-69 63.498c78.852 39.633 166.259 73.75 253.428 96.274l-55.11 55.368c129.628 41.735 283.991 61.619 427.41 61.619l-78.767 79.137c25.492 1.444 30.812.661 56.665.661 186.608 0 366.403-38.225 527.974-107.183V53.647c-133.382 72.685-304.326 124.932-462.335 141.58l92.532-92.981c-70.651 13.164-121.262 15.497-195.71 15.497-86.003 0-163.947-8.764-244.763-26.209l57.702-57.979C180.193 29.053 45.776 6.048-69-39.578V63.498z" fill="#EFEFEF" fill-rule="evenodd"/></svg>