<svg width="200" height="200" viewBox="0 0 200 200" xmlns="http://www.w3.org/2000/svg"><defs><linearGradient x1="0%" y1="0%" x2="100%" y2="100%" id="a"><stop stop-color="#FF6900" offset="0%"/><stop stop-color="#FF2882" offset="50%"/><stop stop-color="#DF2EA8" offset="60%"/><stop stop-color="#BF34CE" offset="72%"/><stop stop-color="#A938E9" offset="83%"/><stop stop-color="#9B3BF9" offset="93%"/><stop stop-color="#963CFF" offset="100%"/></linearGradient></defs><path d="M141.27 14.565A1195.206 1195.206 0 01125.735 0H200v85a1059.343 1059.343 0 01-85-70.435h26.27zm23.197 85.218A1070.733 1070.733 0 0141.125 0H0v42.753a1110.652 1110.652 0 0034.572 35.833C41.84 85.792 49.22 92.825 56.65 99.77H30.614A1061.667 1061.667 0 00155.73 200H200v-60.506a1102.393 1102.393 0 01-61.57-39.722l26.037.011zM80 185.066C52.61 166.409 25.943 146.386 0 125v75h76.258a1101.99 1101.99 0 01-22.517-14.934H80z" fill="url(#a)"/></svg>