<svg width="824" height="232" viewBox="0 0 824 232" xmlns="http://www.w3.org/2000/svg"><defs><linearGradient x1="23.911%" y1="42.647%" x2="76.866%" y2="57.572%" id="a"><stop stop-color="#FF6900" offset="0%"/><stop stop-color="#FF2882" offset="50%"/><stop stop-color="#DF2EA8" offset="60%"/><stop stop-color="#BF34CE" offset="72%"/><stop stop-color="#A938E9" offset="83%"/><stop stop-color="#9B3BF9" offset="93%"/><stop stop-color="#963CFF" offset="100%"/></linearGradient></defs><path d="M0 97c50.22 46.877 101.553 91.877 154 135H0V97zm618.418 24.497C562.812 82.87 508.153 42.37 454.443 0H163a3384.396 3384.396 0 0055.261 56.144c22.39 22.233 45.126 43.925 68.023 65.353h-80.25A3199.554 3199.554 0 00330.464 232H708c-57.447-34.98-114.054-71.815-169.819-110.503h80.237zM824 0H630c63.209 51.342 127.876 100.009 194 146V0z" fill="url(#a)"/></svg>