<svg width="1440" height="482" viewBox="0 0 1440 482" xmlns="http://www.w3.org/2000/svg"><defs><linearGradient x1="-3.316%" y1="37.143%" x2="76.866%" y2="60.658%" id="a"><stop stop-color="#FF6900" offset="0%"/><stop stop-color="#FF2882" offset="50%"/><stop stop-color="#DF2EA8" offset="60%"/><stop stop-color="#BF34CE" offset="72%"/><stop stop-color="#A938E9" offset="83%"/><stop stop-color="#9B3BF9" offset="93%"/><stop stop-color="#963CFF" offset="100%"/></linearGradient></defs><g fill="none" fill-rule="evenodd"><path fill="url(#a)" d="M0 1h1440v481H0z"/><path d="M1341.888 24.332A1996.74 1996.74 0 011315.93 0H1440v142a1769.726 1769.726 0 01-142-117.668h43.888zm38.238 143.803A1804.186 1804.186 0 011172.296 0H1103v72.038a1871.449 1871.449 0 0058.254 60.38c12.245 12.141 24.68 23.992 37.201 35.694h-43.87A1788.908 1788.908 0 001365.405 337H1440V235.048a1857.531 1857.531 0 01-103.745-66.932l43.871.019zM1238 311.91c-46.221-31.344-91.221-64.981-135-100.911v126h128.685a1860.36 1860.36 0 01-37.996-25.09H1238z" fill="#FFF" fill-rule="nonzero"/></g></svg>