<svg xmlns="http://www.w3.org/2000/svg" xmlns:xlink="http://www.w3.org/1999/xlink" width="322" height="400" viewBox="0 0 322 400"><defs><path id="a" d="M.042 0v363.327L36.696 400h284.346V0z"/></defs><g fill="none" fill-rule="evenodd"><mask id="b" fill="#fff"><use xlink:href="#a"/></mask><path fill="#ff6900" d="M642.63 546.767c-82.897-36.31-163.333-80.753-239.583-133.668h33.156c-64.231-44.577-125.502-95.14-182.744-151.935a1435.841 1435.841 0 01-16.069-16.224h26.524c-51.878-53.144-98.675-109.4-140.41-168.157H143.4A1391.476 1391.476 0 0141.038-91.375H54.3a1394.543 1394.543 0 01-73.155-168.159l-16.692 16.7A1398.26 1398.26 0 0014.73-91.375H1.47A1391.404 1391.404 0 0081.59 76.782H61.696A1394.188 1394.188 0 00172.774 244.94h-26.526c37.823 49.122 79.333 96.307 124.55 141.17 9.254 9.182 18.651 18.14 28.114 26.988h-33.155c69.154 64.656 143.756 120.485 221.885 168.158h-39.785c33.748 20.592 68.157 39.653 103.053 57.278l91.72-91.767zM751.042 438.3c-82.898-36.309-163.334-80.753-239.582-133.668h33.154c-64.23-44.576-125.501-95.14-182.743-151.935a1435.782 1435.782 0 01-16.07-16.223h26.525c-51.878-53.146-98.676-109.4-140.41-168.158h19.894a1391.688 1391.688 0 01-102.36-168.158h13.262A1394.219 1394.219 0 0189.556-368l-16.691 16.7a1397.808 1397.808 0 0050.277 151.458H109.88a1391.561 1391.561 0 0080.121 168.157h-19.894a1394.307 1394.307 0 00111.078 168.158h-26.524c37.821 49.123 79.333 96.307 124.549 141.17 9.253 9.182 18.652 18.14 28.114 26.988h-33.155c69.154 64.656 143.757 120.486 221.886 168.158h-39.786c33.748 20.594 68.156 39.654 103.052 57.279l91.72-91.768zM442.497 747c-34.895-17.624-69.302-36.685-103.051-57.278h39.786c-78.13-47.671-152.733-103.5-221.887-168.158h33.156c-9.463-8.847-18.861-17.806-28.115-26.987-45.216-44.863-86.726-92.048-124.55-141.17h26.525A1394.22 1394.22 0 01-46.716 185.249h19.894A1391.817 1391.817 0 01-106.944 17.09h13.263a1397.59 1397.59 0 01-50.277-151.458l16.69-16.7a1394.48 1394.48 0 0073.157 168.16h-13.262A1391.596 1391.596 0 0034.988 185.25H15.093c41.734 58.758 88.531 115.013 140.41 168.158h-26.525a1444.336 1444.336 0 0016.07 16.224c57.241 56.794 118.512 107.357 182.743 151.934h-33.155c76.25 52.915 156.685 97.36 239.582 133.668L442.498 747z" mask="url(#b)"/></g></svg>