<svg xmlns="http://www.w3.org/2000/svg" width="1000" height="330" viewBox="0 0 1000 330"><linearGradient id="a" gradientUnits="userSpaceOnUse" x1="445.656" y1="-70.49" x2="545.577" y2="362.501"><stop offset="0" stop-color="#ff2882"/><stop offset=".027" stop-color="#ff2b7b"/><stop offset=".226" stop-color="#ff414f"/><stop offset=".419" stop-color="#ff532d"/><stop offset=".6" stop-color="#ff5f14"/><stop offset=".765" stop-color="#ff6605"/><stop offset=".901" stop-color="#ff6900"/></linearGradient><path fill-rule="evenodd" clip-rule="evenodd" fill="url(#a)" d="M0 0h1000v330H0z"/><linearGradient id="b" gradientUnits="userSpaceOnUse" x1="275.681" y1="545.608" x2="1265.733" y2="-444.443"><stop offset="0" stop-color="#ff6900"/><stop offset=".783" stop-color="#ff2d78"/><stop offset=".847" stop-color="#ff2882"/></linearGradient><path d="M-251-160V18.9c136.8 68.8 288.4 128 439.6 167.1L93 282.2c224.9 72.4 492.6 107 741.4 107L697.8 526.5c44.2 2.5 53.5 1.1 98.3 1.1 323.7 0 635.6-66.4 915.9-186.1V1.8C1480.6 128 1184.1 218.7 910 247.6l160.5-161.4C947.9 109 860.1 113.1 731 113.1c-149.2 0-284.4-15.2-424.6-45.5L406.5-33.1C181.3-40.9-51.9-80.8-251-160z" fill-rule="evenodd" clip-rule="evenodd" fill="url(#b)"/></svg>