<svg xmlns="http://www.w3.org/2000/svg" xmlns:xlink="http://www.w3.org/1999/xlink" width="216" height="124" viewBox="0 0 216 124"><defs><path id="a" d="M.5.5v215h123V.5z"/><path id="c" d="M.28.88h499v589H.28z"/></defs><g transform="rotate(90 108 108)" fill="none" fill-rule="evenodd"><mask id="b" fill="#fff"><use xlink:href="#a"/></mask><g mask="url(#b)"><g transform="rotate(-91 62.083 322.692)"><mask id="d" fill="#fff"><use xlink:href="#c"/></mask><path fill="#FFF" d="M454.947 374.941c-33.9-14.847-66.793-33.02-97.975-54.658h13.558c-26.265-18.228-51.321-38.904-74.73-62.128a578.22 578.22 0 01-6.57-6.635h10.846a575.41 575.41 0 01-57.419-68.761h8.136a569.1 569.1 0 01-41.86-68.763h5.424a570.223 570.223 0 01-29.917-68.762l-6.825 6.829a571.506 571.506 0 0020.56 61.933h-5.424a569.043 569.043 0 0032.765 68.762h-8.135a570.096 570.096 0 0045.424 68.762h-10.847a578.115 578.115 0 0050.933 57.727c3.784 3.754 7.627 7.417 11.497 11.036h-13.559c28.28 26.438 58.787 49.267 90.737 68.762h-16.27a601.158 601.158 0 0042.143 23.421l37.508-37.525zm44.333-44.353c-33.9-14.847-66.793-33.02-97.974-54.66h13.558c-26.266-18.227-51.323-38.903-74.73-62.127a586.629 586.629 0 01-6.572-6.634h10.847a575.41 575.41 0 01-57.418-68.762h8.134a569.286 569.286 0 01-41.859-68.762h5.424A570.23 570.23 0 01228.774.88l-6.826 6.83a571.724 571.724 0 0020.56 61.933h-5.423a568.958 568.958 0 0032.765 68.761h-8.135a569.81 569.81 0 0045.423 68.762h-10.846a578.241 578.241 0 0050.932 57.728 539.284 539.284 0 0011.497 11.035h-13.558c28.28 26.439 58.787 49.269 90.737 68.762h-16.27a601.558 601.558 0 0042.142 23.422l37.508-37.525zM373.105 456.82a601.998 601.998 0 01-42.142-23.421h16.27c-31.95-19.495-62.458-42.324-90.737-68.763h13.559c-3.87-3.618-7.714-7.282-11.498-11.036a578.47 578.47 0 01-50.933-57.726h10.847a570.294 570.294 0 01-45.424-68.762h8.135a568.957 568.957 0 01-32.764-68.762h5.424a571.305 571.305 0 01-20.56-61.934l6.825-6.828a569.899 569.899 0 0029.916 68.762H164.6a568.954 568.954 0 0041.859 68.762h-8.135a575.316 575.316 0 0057.418 68.762h-10.847a594.98 594.98 0 006.571 6.634c23.409 23.224 48.465 43.9 74.731 62.128H312.64c31.18 21.638 64.074 39.812 97.974 54.66l-37.508 37.524zm-51.16 51.182c-33.9-14.847-66.792-33.02-97.973-54.66h13.558c-26.266-18.227-51.323-38.903-74.73-62.127a578.337 578.337 0 01-6.572-6.634h10.847a575.41 575.41 0 01-57.418-68.762h8.134a569.286 569.286 0 01-41.859-68.762h5.424a570.16 570.16 0 01-29.916-68.763l-6.826 6.83a571.724 571.724 0 0020.56 61.933h-5.423a568.958 568.958 0 0032.765 68.761H84.38a569.9 569.9 0 0045.423 68.763h-10.846a578.23 578.23 0 0050.932 57.727c3.784 3.754 7.627 7.417 11.497 11.035H167.83c28.28 26.439 58.787 49.269 90.737 68.762h-16.27a601.15 601.15 0 0042.142 23.422l37.507-37.525zm44.334-44.354c-33.9-14.847-66.793-33.02-97.974-54.658h13.559c-26.267-18.228-51.323-38.905-74.731-62.129-2.215-2.197-4.4-4.41-6.571-6.633h10.846a575.514 575.514 0 01-57.418-68.763h8.135a568.876 568.876 0 01-41.859-68.762h5.423a570.14 570.14 0 01-29.915-68.762l-6.826 6.828a571.16 571.16 0 0020.56 61.934h-5.423a569.036 569.036 0 0032.764 68.762h-8.135a570.128 570.128 0 0045.423 68.762H163.29a578.253 578.253 0 0050.934 57.727c3.783 3.754 7.627 7.418 11.497 11.036h-13.56c28.281 26.439 58.789 49.268 90.739 68.761h-16.271a601.798 601.798 0 0042.142 23.423l37.508-37.526zM240.105 589.88a600.75 600.75 0 01-42.143-23.421h16.27c-31.95-19.495-62.457-42.324-90.737-68.762h13.558a541.725 541.725 0 01-11.497-11.036 578.23 578.23 0 01-50.932-57.727H85.47a570.096 570.096 0 01-45.424-68.762h8.135a569.043 569.043 0 01-32.765-68.762h5.424A571.506 571.506 0 01.28 229.477l6.825-6.829a570.223 570.223 0 0029.917 68.762h-5.424a569.1 569.1 0 0041.86 68.763h-8.136a575.332 575.332 0 0057.419 68.761h-10.848a586.708 586.708 0 006.572 6.635c23.409 23.224 48.465 43.9 74.73 62.128h-13.558c31.182 21.637 64.075 39.811 97.975 54.658l-37.508 37.525z" mask="url(#d)" transform="rotate(1 249.78 295.38)"/></g></g></g></svg>