<svg xmlns="http://www.w3.org/2000/svg" xmlns:xlink="http://www.w3.org/1999/xlink" width="149" height="48" viewBox="0 0 149 48"><defs><path id="a" d="M.35.35v148h47V.35z"/><path id="c" d="M.196.616h349.3v412.3H.196z"/></defs><g transform="rotate(90 74.5 74.5)" fill="none" fill-rule="evenodd"><mask id="b" fill="#fff"><use xlink:href="#a"/></mask><g mask="url(#b)"><g transform="rotate(-91 43.458 225.884)"><mask id="d" fill="#fff"><use xlink:href="#c"/></mask><path fill="#FFF" d="M318.463 262.459c-23.73-10.393-46.755-23.115-68.583-38.261h9.491c-18.386-12.76-35.925-27.233-52.31-43.49a410.625 410.625 0 01-4.6-4.644h7.592a402.776 402.776 0 01-40.193-48.133h5.695a398.25 398.25 0 01-29.302-48.134h3.797a399.243 399.243 0 01-20.942-48.133l-4.777 4.78a399.762 399.762 0 0014.392 43.353h-3.797a398.426 398.426 0 0022.935 48.133h-5.694a398.944 398.944 0 0031.796 48.134h-7.593a405.027 405.027 0 0035.653 40.409c2.65 2.627 5.34 5.192 8.048 7.725h-9.49c19.795 18.507 41.15 34.487 63.515 48.133h-11.389a420.912 420.912 0 0029.5 16.395l26.256-26.267zm31.033-31.048c-23.73-10.392-46.755-23.114-68.582-38.26h9.49c-18.386-12.76-35.925-27.233-52.31-43.49a410.625 410.625 0 01-4.6-4.644h7.592a402.776 402.776 0 01-40.192-48.134h5.694a398.28 398.28 0 01-29.301-48.133h3.796A399.092 399.092 0 01160.142.616l-4.778 4.78a400.142 400.142 0 0014.392 43.354h-3.796a398.125 398.125 0 0022.935 48.133H183.2a398.953 398.953 0 0031.797 48.134h-7.593a405.027 405.027 0 0035.653 40.409 376.785 376.785 0 008.048 7.724h-9.49c19.795 18.507 41.15 34.488 63.515 48.134h-11.39a420.912 420.912 0 0029.5 16.395l26.255-26.268zm-88.323 88.363a421.82 421.82 0 01-29.5-16.395h11.39c-22.365-13.646-43.72-29.626-63.516-48.134h9.491a372.058 372.058 0 01-8.048-7.725 404.667 404.667 0 01-35.653-40.408h7.593a399.15 399.15 0 01-31.797-48.134h5.695a398.282 398.282 0 01-22.936-48.133h3.797a399.996 399.996 0 01-14.392-43.354l4.778-4.78a399.002 399.002 0 0020.941 48.134h-3.796a398.28 398.28 0 0029.301 48.133h-5.695a402.785 402.785 0 0040.193 48.134h-7.592c1.52 1.556 3.05 3.106 4.6 4.643 16.385 16.257 33.925 30.73 52.311 43.49h-9.49c21.826 15.147 44.851 27.868 68.581 38.262l-26.256 26.267zm-35.811 35.827c-23.73-10.392-46.755-23.114-68.582-38.261h9.49c-18.385-12.76-35.925-27.233-52.31-43.49a419.048 419.048 0 01-4.6-4.643h7.592a402.776 402.776 0 01-40.192-48.134h5.694a398.435 398.435 0 01-29.301-48.133h3.796a399.25 399.25 0 01-20.941-48.134l-4.778 4.78a400.142 400.142 0 0014.392 43.354h-3.796a398.275 398.275 0 0022.935 48.133h-5.695a398.953 398.953 0 0031.797 48.134H83.27a404.905 404.905 0 0035.653 40.408 379.222 379.222 0 008.048 7.725h-9.49c19.795 18.507 41.15 34.488 63.515 48.134h-11.389a420.912 420.912 0 0029.5 16.395l26.255-26.268zm31.033-31.047c-23.73-10.393-46.755-23.115-68.581-38.261h9.49c-18.386-12.76-35.925-27.233-52.311-43.49a410.625 410.625 0 01-4.6-4.644h7.593a402.855 402.855 0 01-40.193-48.133h5.695a398.25 398.25 0 01-29.302-48.134h3.796a399.003 399.003 0 01-20.94-48.133l-4.779 4.78a400.126 400.126 0 0014.392 43.353H72.86a398.511 398.511 0 0022.935 48.134H90.1a399.131 399.131 0 0031.796 48.133h-7.593a404.8 404.8 0 0035.654 40.409 372.155 372.155 0 008.048 7.725h-9.492c19.796 18.507 41.152 34.487 63.517 48.133h-11.39a421.152 421.152 0 0029.5 16.396l26.255-26.268zm-88.322 88.362a420.324 420.324 0 01-29.5-16.395h11.39c-22.365-13.646-43.72-29.626-63.516-48.133h9.49a376.746 376.746 0 01-8.047-7.726 404.54 404.54 0 01-35.653-40.408h7.592a399.063 399.063 0 01-31.796-48.134h5.694a398.275 398.275 0 01-22.935-48.133h3.797A400.204 400.204 0 01.196 160.634l4.778-4.78a399.154 399.154 0 0020.942 48.133h-3.797a398.377 398.377 0 0029.302 48.134h-5.695a402.776 402.776 0 0040.193 48.133h-7.593c1.52 1.556 3.05 3.106 4.6 4.644 16.386 16.257 33.925 30.73 52.311 43.49h-9.49c21.827 15.146 44.852 27.868 68.582 38.26l-26.256 26.268z" mask="url(#d)" transform="rotate(1 174.846 206.766)"/></g></g></g></svg>