<svg width="649" height="810" viewBox="0 0 649 810" xmlns="http://www.w3.org/2000/svg" xmlns:xlink="http://www.w3.org/1999/xlink"><defs><linearGradient x1="100%" y1="50%" x2="0%" y2="50%" id="b"><stop stop-color="#0CFF80" offset="0%"/><stop stop-color="#E0F405" offset="100%"/></linearGradient><path id="a" d="M0 0v735.737L74.11 810H649V0z"/></defs><g fill="none" fill-rule="evenodd"><mask id="c" fill="#fff"><use xlink:href="#a"/></mask><path d="M1300.633 1069.864c-167.74-73.465-330.5-163.388-484.787-270.452l67.089-.001c-129.97-90.193-253.948-192.5-369.776-307.413-10.957-10.87-21.773-21.822-32.514-32.825h53.67C429.342 351.645 334.649 237.822 250.202 118.937h40.255A2815.754 2815.754 0 0183.333-221.3h26.836C53.092-331.998 3.711-445.668-37.858-561.538l-33.775 33.789A2828.125 2828.125 0 0030.1-221.3H3.266C49.33-105.161 103.4 8.515 165.386 118.936l-40.253-.001c65.939 117.455 140.819 231.22 224.763 340.237h-53.673c76.532 99.39 160.527 194.86 252.02 285.633 18.726 18.578 37.742 36.702 56.89 54.606l-67.088-.002c139.93 130.82 290.885 243.781 448.976 340.238h-80.504c68.289 41.665 137.913 80.23 208.523 115.892l185.593-185.675zM1520 850.402c-167.74-73.465-330.5-163.389-484.785-270.454h67.086c-129.967-90.19-253.947-192.499-369.774-307.412-10.958-10.87-21.775-21.823-32.516-32.825h53.67C648.71 132.181 554.016 18.361 469.57-100.526h40.255A2815.703 2815.703 0 01302.7-440.763h26.836C272.457-551.462 223.078-665.13 181.509-781l-33.775 33.788a2828.125 2828.125 0 00101.734 306.45h-26.835c46.063 116.138 100.133 229.814 162.122 340.234H344.5c65.94 117.456 140.82 231.22 224.763 340.238h-53.672c76.53 99.39 160.529 194.859 252.02 285.633 18.725 18.576 37.743 36.702 56.889 54.604l-67.088-.001c139.93 130.821 290.888 243.782 448.978 340.237h-80.506c68.289 41.668 137.911 80.233 208.523 115.894L1520 850.402zM895.672 1475c-70.609-35.66-140.232-74.226-208.522-115.89h80.506c-158.093-96.456-309.049-209.417-448.98-340.238h67.091c-19.15-17.901-38.165-36.027-56.89-54.605-91.494-90.772-175.488-186.242-252.02-285.633h53.67C46.584 569.618-28.295 455.852-94.233 338.398h40.254C-115.968 227.977-170.037 114.301-216.102-1.838h26.837A2827.567 2827.567 0 01-291-308.287l33.774-33.787c41.57 115.869 90.95 229.537 148.027 340.236h-26.835A2815.232 2815.232 0 0071.092 338.399H30.835c84.446 118.885 179.14 232.708 284.113 340.238l-53.67-.002c10.74 11.004 21.559 21.955 32.514 32.827C409.62 826.375 533.6 928.68 663.568 1018.874H596.48c154.287 107.063 317.046 196.989 484.786 270.452L895.672 1475z" fill="url(#b)" mask="url(#c)"/></g></svg>