<svg xmlns="http://www.w3.org/2000/svg" viewBox="0 0 328 119" width="328" height="119"><linearGradient id="a" gradientUnits="userSpaceOnUse" x1="0" y1="59.875" x2="328" y2="59.875"><stop offset="0" stop-color="#37003c"/><stop offset=".999" stop-color="#ec247b"/></linearGradient><path d="M328 38v64.9c-18.2 6.2-37 11.4-56.2 15.3-1.2.2-2.4.5-3.7.7h-102l18.7-18.9c-49.7 0-103.2-6.9-148.1-21.5l19.1-19.3C37 54.5 18.1 48.1 0 40.6V.8c31.7 8.8 65.9 13.5 99.3 14.7l-20 20.2c14 3 27.8 5.3 41.7 6.8 14 1.5 28.2 2.3 43.1 2.3 25.8 0 43.3-.8 67.8-5.4l-32.1 32.4C242.6 67.2 288.1 55.1 328 38z" fill-rule="evenodd" clip-rule="evenodd" fill="url(#a)"/></svg>