<svg xmlns="http://www.w3.org/2000/svg" width="91" height="45" viewBox="0 0 91 45"><defs><linearGradient id="a" x1="98.829%" x2="19.018%" y1="56.607%" y2="45.64%"><stop offset="0%" stop-color="#963CFF"/><stop offset="100%" stop-color="#37003C"/></linearGradient></defs><path d="M173.393 71.063c22.343 13.776 47.362 26.14 72.61 35.066l-17.767 14.964c37.333 15.712 82.564 25.598 125.065 29.313l-25.393 21.387c7.517 1.088 9.114.994 16.775 1.664 55.301 4.834 109.574-1.825 159.243-18.053L509 97.46c-41.412 18.062-93.425 29.101-140.683 29.936l29.832-25.128c-21.278 2.066-36.337 1.446-58.4-.483-25.487-2.227-48.358-6.841-71.856-14.099l18.603-15.669c-38.36-4.696-77.597-14.989-110.428-31.469l-2.675 30.514z" transform="scale(-1 1) rotate(15 472.416 -1448.774)" fill="url(#a)" fill-rule="evenodd"/></svg>