<svg xmlns="http://www.w3.org/2000/svg" width="642" height="80" viewBox="0 0 642 80"><defs><linearGradient id="a" x1="100%" x2="0%" y1="50%" y2="50%"><stop offset="0%" stop-color="#E0E0E0" stop-opacity=".3"/><stop offset="100%" stop-color="#FBFBFB" stop-opacity="0"/></linearGradient></defs><path d="M22-55l1.96.777C88.745-28.723 164.334-15.84 237.37-13.3l-32.788 33.06 2.119.456c45.167 9.644 88.844 14.489 136.961 14.489l1.642-.001c41.41-.035 69.94-1.427 109.565-8.836l-52.579 53.02 2.696-.291c89.029-9.8 184.98-39.408 260.013-80.44v111.606l-2.757 1.174c-91.095 38.58-192.275 59.942-297.25 59.942h-.79c-7.006.008-11.303.116-15.626.12h-.962c-4.02-.01-8.236-.123-14.82-.497l44.757-45.124-2.447-.004c-80.8-.224-167.496-11.572-240.416-35.132l31.315-31.571-2.093-.547C115.074 45.278 66.174 26.055 22 3.774V-55zm-42-180c65.217 26.016 141.597 39.134 215.37 41.7l-32.786 33.061 2.118.456c45.167 9.644 88.844 14.489 136.961 14.489l1.641-.001c41.41-.035 69.94-1.427 109.566-8.835l-52.58 53.017 2.696-.29c89.03-9.8 184.98-39.408 260.014-80.44v111.606l-2.757 1.174c-91.095 38.58-192.276 59.942-297.25 59.942h-.79c-7.007.008-11.303.116-15.626.12h-.962c-4.02-.01-8.236-.123-14.82-.497l44.756-45.125-2.447-.003C252.305-54.851 165.61-66.199 92.69-89.758l31.314-31.571-2.093-.547C73.074-134.722 24.174-153.945-20-176.225z" transform="translate(-22)" fill="url(#a)" fill-rule="evenodd"/></svg>